<?xml version="1.0" standalone="no"?>
<!DOCTYPE svg PUBLIC "-//W3C//DTD SVG 20010904//EN"
 "http://www.w3.org/TR/2001/REC-SVG-20010904/DTD/svg10.dtd">
<svg version="1.0" xmlns="http://www.w3.org/2000/svg"
 width="608.000000pt" height="710.000000pt" viewBox="0 0 608.000000 710.000000"
 preserveAspectRatio="xMidYMid meet">

<g transform="translate(0.000000,710.000000) scale(0.100000,-0.100000)"
fill="#fff" stroke="none">
<path d="M3305 7003 c-9 -15 -198 -208 -419 -428 -221 -220 -453 -458 -517
-530 -157 -177 -320 -372 -347 -416 -29 -48 -57 -71 -85 -71 l-24 0 32 -75
c18 -41 36 -78 41 -83 5 -5 35 -3 69 5 106 26 246 12 347 -33 115 -51 234
-194 282 -339 28 -84 59 -254 48 -264 -4 -3 -29 -14 -56 -24 -90 -33 -115 -70
-179 -261 -31 -93 -83 -249 -117 -346 -33 -97 -60 -188 -60 -202 0 -13 9 -53
20 -88 11 -34 20 -67 20 -71 0 -10 -58 1 -81 16 -14 9 -29 5 -66 -15 -148 -80
-341 -101 -478 -53 -216 76 -336 253 -386 568 -26 165 11 406 87 566 73 155
164 254 289 312 247 116 475 -91 478 -433 1 -49 4 -88 7 -88 4 0 15 6 26 14
17 13 19 26 18 108 -3 230 -103 408 -262 468 -48 19 -71 21 -147 17 l-89 -5
38 35 38 35 -32 77 c-18 42 -33 77 -35 79 -1 1 -15 -4 -31 -13 -16 -8 -34 -15
-39 -15 -6 0 -45 -17 -87 -38 l-77 -39 40 -84 c21 -46 38 -88 38 -94 -1 -11
-118 -121 -122 -114 -1 2 -23 46 -48 98 l-45 94 -79 -78 c-92 -91 -158 -143
-313 -248 -61 -42 -118 -81 -125 -87 -6 -6 -46 -37 -88 -68 -194 -145 -237
-179 -286 -222 -28 -25 -75 -65 -103 -90 -29 -24 -48 -46 -42 -48 5 -1 72 17
149 42 186 60 374 112 453 126 36 6 73 13 83 16 17 5 16 4 -1 -26 -18 -28 -39
-47 -102 -90 -12 -8 -53 -43 -90 -78 -38 -34 -83 -75 -102 -90 -100 -80 -334
-318 -459 -469 -149 -178 -201 -253 -174 -253 3 0 52 28 108 61 201 121 341
185 495 228 l73 20 -7 -22 c-4 -12 -34 -51 -66 -87 -81 -88 -226 -295 -332
-473 -53 -89 -196 -377 -196 -395 0 -4 -10 -25 -21 -47 -26 -47 -71 -174 -105
-295 -13 -47 -33 -107 -44 -133 -12 -27 -20 -53 -18 -59 2 -6 47 40 100 103
148 177 386 395 460 422 27 9 23 -39 -7 -115 -30 -76 -100 -353 -115 -458 -6
-41 -16 -102 -22 -135 -5 -33 -14 -85 -18 -115 -10 -67 -25 -500 -18 -500 3 0
22 42 43 93 83 209 233 451 367 592 98 104 101 102 86 -71 -15 -179 4 -479 37
-584 7 -25 19 -72 25 -105 12 -66 53 -197 106 -345 19 -52 34 -98 34 -102 0
-10 123 -322 158 -401 45 -101 229 -467 273 -542 62 -108 59 -108 102 -8 125
296 393 651 671 891 159 138 350 268 516 352 l60 30 -7 -32 c-3 -18 -19 -51
-34 -72 -16 -22 -36 -62 -45 -90 -9 -28 -20 -55 -24 -61 -4 -5 -18 -53 -30
-105 -13 -52 -27 -103 -32 -113 -22 -42 5 -29 131 65 202 151 403 262 611 340
156 58 228 72 365 72 138 0 190 -12 241 -56 91 -81 362 -225 509 -272 221 -71
391 -72 588 -5 221 76 338 169 392 312 15 39 29 56 76 88 70 47 280 239 330
300 63 78 100 139 106 173 5 30 0 39 -48 87 -70 70 -131 143 -213 254 -37 50
-86 115 -110 145 -23 30 -71 96 -106 145 -36 50 -81 113 -102 140 -21 28 -38
52 -38 55 0 3 38 5 85 5 46 0 88 5 93 10 6 6 13 24 17 42 l6 32 -84 -6 -84 -6
-22 36 c-53 86 -195 142 -356 141 -121 -2 -159 -11 -300 -76 -71 -33 -128 -53
-160 -56 -119 -10 -671 84 -1055 180 -173 43 -201 54 -315 123 -38 23 -110 66
-160 95 -119 70 -322 197 -362 227 -17 14 -34 36 -38 51 -4 23 18 138 29 150
2 2 27 -8 54 -22 28 -14 58 -23 66 -20 8 3 27 44 41 91 15 46 51 157 80 245
40 117 52 166 45 178 -5 10 -35 40 -65 67 l-56 49 34 96 c59 164 59 165 172
227 93 52 104 55 160 53 106 -4 207 -23 245 -47 166 -105 304 -142 715 -194
341 -43 798 -75 886 -62 59 9 113 41 117 69 3 20 8 21 45 16 23 -3 56 -9 72
-14 17 -5 43 -11 58 -14 l29 -7 -33 41 c-33 41 -99 70 -159 70 -30 0 -45 14
-83 81 -31 55 -109 128 -210 198 -39 28 -92 75 -117 105 -166 203 -266 314
-433 481 l-189 190 6 95 c3 52 8 169 11 260 11 318 35 886 41 969 4 55 3 82
-4 80 -5 -2 -61 -52 -123 -110 -63 -58 -136 -125 -164 -150 -52 -46 -296 -269
-305 -279 -39 -41 -170 -149 -185 -152 -19 -3 -23 16 -67 277 -25 154 -49 309
-53 345 -10 87 -17 99 -40 63z m-15 -237 c0 -14 21 -145 46 -293 25 -147 59
-351 75 -453 16 -102 35 -221 43 -265 8 -44 20 -116 26 -160 6 -44 13 -92 16
-106 5 -24 114 -130 560 -542 l61 -56 -13 87 c-8 48 -18 109 -23 137 -5 27 -8
52 -6 54 8 7 103 -70 165 -136 125 -130 313 -385 335 -452 6 -19 3 -21 -17
-17 -13 3 -52 8 -88 11 -36 3 -157 20 -270 37 l-205 31 -165 72 c-306 134
-956 395 -1085 435 -54 17 -62 25 -95 90 -46 91 -63 165 -63 275 -1 109 14
176 64 304 87 220 316 585 519 826 37 44 75 95 86 113 22 38 34 41 34 8z
m-281 -2027 c35 -17 59 -35 54 -38 -4 -4 -40 -20 -80 -35 -40 -15 -83 -36 -96
-47 -30 -22 -41 -54 -188 -509 -116 -362 -116 -359 -93 -467 6 -29 4 -33 -15
-33 -12 0 -43 11 -70 24 -42 22 -49 31 -64 76 -26 81 -20 125 36 275 8 22 63
186 122 365 73 222 115 333 130 349 23 24 142 70 181 71 11 0 49 -14 83 -31z
m-195 -614 c18 -14 15 -35 -6 -35 -14 0 -48 30 -48 42 0 13 33 9 54 -7z m-181
-667 c12 -6 90 -55 172 -108 83 -54 218 -134 300 -180 83 -45 180 -100 218
-122 37 -21 100 -48 140 -59 362 -99 533 -137 852 -189 132 -22 274 -40 316
-40 66 0 83 4 145 35 38 19 74 35 80 35 7 0 97 -93 200 -207 413 -455 454
-502 454 -514 0 -4 -25 -15 -55 -24 -45 -13 -56 -20 -61 -42 -8 -30 24 -140
63 -217 31 -62 109 -140 156 -157 20 -7 37 -16 37 -20 0 -15 -101 -99 -167
-137 -100 -59 -242 -112 -317 -119 -151 -14 -317 76 -786 426 -327 245 -416
300 -505 315 l-40 7 40 -36 c40 -36 472 -398 555 -465 88 -72 267 -196 389
-270 128 -77 149 -96 138 -124 -20 -53 -331 29 -602 158 -197 95 -612 336
-577 336 15 0 179 -35 327 -69 72 -17 139 -31 150 -31 30 0 -115 102 -225 159
-175 90 -361 141 -635 176 -158 20 -185 25 -495 100 -146 36 -296 69 -335 74
-38 5 -106 16 -150 24 -44 9 -154 22 -245 31 -223 22 -353 37 -363 43 -8 5 91
67 173 107 39 19 53 21 100 14 30 -5 73 -7 95 -6 l40 3 -73 48 c-160 105 -381
204 -566 251 l-90 24 43 21 c66 34 295 116 453 162 79 22 146 44 150 48 7 6
-38 40 -246 191 -73 53 -73 55 14 65 79 9 268 60 373 102 96 38 226 110 291
162 45 36 41 35 69 19z"/>
<path d="M3213 6628 c-131 -253 -259 -559 -300 -718 -14 -55 -26 -139 -30
-200 -4 -90 -2 -121 21 -220 29 -128 82 -246 128 -285 21 -18 42 -25 71 -25
36 0 46 6 87 49 30 30 50 61 53 82 8 40 30 1400 23 1406 -2 3 -26 -37 -53 -89z"/>
<path d="M1744 4990 c-52 -26 -120 -94 -161 -162 -56 -91 -57 -89 97 -175 388
-217 364 -205 374 -180 5 12 10 85 10 162 1 124 -2 147 -22 202 -26 68 -78
135 -123 158 -41 22 -126 19 -175 -5z"/>
<path d="M1493 4594 c-5 -11 -8 -80 -8 -154 0 -150 14 -211 67 -287 58 -86
128 -117 211 -94 76 22 174 117 228 223 l19 37 -233 132 c-127 73 -242 139
-254 147 -21 13 -24 12 -30 -4z m324 -320 c9 -24 -23 -84 -45 -84 -29 0 -32
10 -15 44 29 58 48 71 60 40z"/>
<path d="M3071 4447 c-21 -26 -42 -90 -37 -111 3 -12 20 -30 38 -40 18 -11 90
-55 160 -99 74 -46 134 -77 142 -74 18 7 56 78 56 105 0 10 -10 28 -22 39 -32
29 -303 192 -319 193 -4 0 -12 -6 -18 -13z m140 -135 c-6 -12 -7 -23 -1 -31 6
-6 2 -5 -7 3 -13 12 -14 18 -3 30 17 22 23 20 11 -2z"/>
<path d="M3548 3938 c-195 -601 -191 -585 -168 -629 9 -15 68 -49 86 -49 2 0
4 27 4 60 0 47 16 109 79 302 87 268 161 499 161 504 0 2 -17 11 -37 21 -21 9
-40 18 -43 20 -4 2 -40 -101 -82 -229z"/>
<path d="M3725 3933 c-31 -98 -86 -267 -121 -375 -65 -197 -65 -198 -53 -253
7 -31 17 -63 23 -71 30 -41 734 -174 1006 -190 84 -5 105 -3 185 21 146 44
204 54 316 55 126 0 176 -13 310 -81 110 -56 156 -62 224 -29 69 34 81 53 109
185 14 66 46 210 71 320 25 110 51 225 56 255 13 63 7 166 -10 199 l-12 22
-27 -22 c-15 -11 -43 -28 -62 -37 -99 -44 -895 -15 -1300 48 -233 37 -526 94
-637 126 -20 6 -25 -5 -78 -173z m2039 -413 c-24 -123 -45 -224 -47 -225 -1
-1 -28 -25 -59 -54 l-56 -52 4 33 c9 62 35 192 65 320 l30 127 52 39 c29 22
53 39 54 38 1 -1 -18 -102 -43 -226z m-1481 158 l49 -10 -24 -27 c-13 -14 -79
-85 -146 -157 l-122 -132 -47 10 c-27 5 -58 11 -71 14 -21 4 -7 22 129 165
108 113 157 158 168 154 9 -4 38 -11 64 -17z m-288 -18 c-4 -6 -1 -18 6 -26
10 -13 16 -11 43 13 l31 28 -29 -32 c-25 -28 -31 -30 -58 -21 -28 10 -28 11
-12 29 19 21 29 25 19 9z m525 -39 c14 -10 25 -23 25 -29 0 -6 -57 -71 -127
-145 l-127 -134 -66 12 c-36 7 -68 15 -71 18 -3 2 59 73 137 157 135 144 144
152 173 146 17 -4 42 -15 56 -25z"/>
<path d="M2032 4026 c-29 -35 -77 -80 -107 -101 -54 -37 -54 -38 -40 -65 8
-16 22 -35 30 -44 15 -14 19 -14 45 -1 44 23 153 119 169 149 13 24 12 30 -9
69 -12 23 -26 45 -30 50 -3 4 -30 -21 -58 -57z"/>
<path d="M2983 3610 c-50 -30 -68 -84 -43 -131 15 -26 68 -52 94 -45 33 8 76
45 87 74 14 36 -6 89 -41 107 -38 20 -59 19 -97 -5z"/>
</g>
</svg>
